<svg width="52" height="48" viewBox="0 0 52 48" fill="none" xmlns="http://www.w3.org/2000/svg">
<rect width="52" height="48" fill="#E5E5E5"/>
<g clip-path="url(#clip0_0_1)">
<rect width="1400" height="4093" transform="translate(-284 -1155)" fill="white"/>
<path d="M-284 -307H609C829.914 -307 1009 -127.914 1009 93V271H-284V-307Z" fill="#ECF7FF"/>
<g filter="url(#filter0_d_0_1)">
<rect x="-19" y="-18" width="308" height="192" rx="10" fill="white"/>
</g>
<rect width="52" height="48" rx="10" fill="#FFDED4"/>
<g clip-path="url(#clip1_0_1)">
<path d="M26 38.7698C17.8559 38.7698 11.2302 32.1441 11.2302 24C11.2302 15.8559 17.8559 9.23015 26 9.23015C34.1441 9.23015 40.7698 15.8559 40.7698 24C40.7698 32.1441 34.1441 38.7698 26 38.7698ZM26.3282 29.3034C28.4544 29.3375 30.5156 29.7005 32.3894 30.353C32.8565 28.534 33.1292 26.4908 33.1545 24.3282H26.3282V29.3034ZM26.3282 29.9598V38.097C28.8486 37.8715 31.0323 35.0636 32.2158 30.9871C30.4008 30.3497 28.3976 29.9939 26.3282 29.9598ZM25.6718 29.9598C23.602 29.9939 21.5992 30.3497 19.7839 30.9874C20.9674 35.0636 23.1511 37.8715 25.6718 38.097V29.9598ZM25.6718 29.3034V24.3282H18.8455C18.8708 26.4908 19.1435 28.534 19.6106 30.353C21.4844 29.7005 23.5456 29.3375 25.6718 29.3034ZM18.1891 24.3282H11.8948C11.969 27.5507 13.1263 30.5089 15.0188 32.8521C16.1708 31.9219 17.5198 31.1545 19.0047 30.5749C18.5055 28.686 18.2153 26.568 18.1891 24.3282ZM18.1891 23.6718C18.215 21.432 18.5055 19.314 19.0047 17.4248C17.5201 16.8452 16.1708 16.0778 15.0191 15.1476C13.1263 17.4911 11.969 20.4493 11.8948 23.6718H18.1891ZM18.8455 23.6718H25.6718V18.697C23.5456 18.6628 21.4844 18.2995 19.6106 17.647C19.1435 19.466 18.8708 21.5091 18.8455 23.6718ZM25.6718 18.0405V9.903C23.1511 10.1285 20.9674 12.9364 19.7839 17.0129C21.5992 17.6503 23.6024 18.0061 25.6718 18.0405ZM26.3282 18.0405C28.3976 18.0064 30.4008 17.6506 32.2158 17.0132C31.0323 12.9364 28.8489 10.1285 26.3282 9.903V18.0405ZM26.3282 18.697V23.6718H33.1545C33.1292 21.5091 32.8565 19.466 32.3894 17.647C30.5156 18.2995 28.4544 18.6628 26.3282 18.697ZM33.8106 23.6718H40.1052C40.031 20.4493 38.8737 17.4911 36.9809 15.1476C35.8288 16.0778 34.4799 16.8455 32.995 17.4248C33.4942 19.3143 33.7847 21.432 33.8106 23.6718ZM33.8106 24.3282C33.7847 26.568 33.4942 28.6856 32.995 30.5749C34.4799 31.1545 35.8288 31.9219 36.9809 32.8521C38.8737 30.5086 40.0307 27.5503 40.1049 24.3282H33.8106ZM36.5565 33.3529C35.4747 32.4815 34.2091 31.7604 32.8168 31.2103C31.9145 34.2457 30.4621 36.6213 28.716 37.8485C31.8088 37.243 34.5419 35.6242 36.5565 33.3529ZM23.284 37.8485C21.5379 36.6213 20.0855 34.2457 19.1832 31.2106C17.7909 31.7607 16.5253 32.4818 15.4435 33.3532C17.4578 35.6242 20.1909 37.243 23.284 37.8485ZM15.4432 14.6471C16.525 15.5185 17.7903 16.2396 19.1829 16.7897C20.0852 13.7546 21.5375 11.379 23.2837 10.1518C20.1909 10.757 17.4578 12.3758 15.4432 14.6471ZM28.716 10.1515C30.4621 11.3787 31.9145 13.7543 32.8168 16.7897C34.2094 16.2396 35.4747 15.5185 36.5565 14.6471C34.5419 12.3758 31.8092 10.757 28.716 10.1515Z" fill="black"/>
</g>
</g>
<defs>
<filter id="filter0_d_0_1" x="-30" y="-29" width="330" height="214" filterUnits="userSpaceOnUse" color-interpolation-filters="sRGB">
<feFlood flood-opacity="0" result="BackgroundImageFix"/>
<feColorMatrix in="SourceAlpha" type="matrix" values="0 0 0 0 0 0 0 0 0 0 0 0 0 0 0 0 0 0 127 0" result="hardAlpha"/>
<feMorphology radius="2" operator="dilate" in="SourceAlpha" result="effect1_dropShadow_0_1"/>
<feOffset/>
<feGaussianBlur stdDeviation="4.5"/>
<feComposite in2="hardAlpha" operator="out"/>
<feColorMatrix type="matrix" values="0 0 0 0 0 0 0 0 0 0 0 0 0 0 0 0 0 0 0.05 0"/>
<feBlend mode="normal" in2="BackgroundImageFix" result="effect1_dropShadow_0_1"/>
<feBlend mode="normal" in="SourceGraphic" in2="effect1_dropShadow_0_1" result="shape"/>
</filter>
<clipPath id="clip0_0_1">
<rect width="1400" height="4093" fill="white" transform="translate(-284 -1155)"/>
</clipPath>
<clipPath id="clip1_0_1">
<rect width="30" height="30" fill="white" transform="matrix(1 0 0 -1 11 39)"/>
</clipPath>
</defs>
</svg>
