<svg width="52" height="48" viewBox="0 0 52 48" fill="none" xmlns="http://www.w3.org/2000/svg">
<rect width="52" height="48" fill="#E5E5E5"/>
<g clip-path="url(#clip0_0_1)">
<rect width="1400" height="4093" transform="translate(-981 -1155)" fill="white"/>
<path d="M472.908 60.5423C472.949 61.8853 472.976 63.2337 472.99 64.5876L471.99 64.5977C471.997 65.2712 472 65.9462 472 66.6224C472 67.2847 471.997 67.947 471.99 68.6094L472.99 68.6192C472.977 69.9503 472.951 71.2817 472.912 72.6131L471.912 72.5838C471.873 73.9088 471.822 75.2339 471.757 76.5591L472.756 76.6077C472.691 77.938 472.614 79.2684 472.524 80.5986L471.526 80.531C471.437 81.8518 471.335 83.1724 471.22 84.4928L472.216 84.5791C472.102 85.9057 471.974 87.2321 471.834 88.558L470.84 88.4532C470.701 89.7728 470.549 91.092 470.386 92.4108L471.378 92.5338C471.215 93.8526 471.039 95.1709 470.852 96.4885L469.862 96.3476C469.675 97.6593 469.476 98.9703 469.266 100.281L470.253 100.439C470.042 101.755 469.819 103.071 469.584 104.385L468.599 104.209C468.367 105.512 468.122 106.814 467.866 108.115L468.848 108.308C468.591 109.613 468.323 110.917 468.043 112.22L467.066 112.011C466.787 113.308 466.498 114.604 466.197 115.899L467.171 116.125C466.87 117.422 466.558 118.717 466.235 120.01L465.265 119.768C464.944 121.052 464.612 122.335 464.269 123.616L465.235 123.874C464.891 125.161 464.537 126.446 464.171 127.729L463.209 127.456C462.846 128.732 462.472 130.007 462.087 131.28L463.044 131.569C462.66 132.841 462.266 134.11 461.861 135.378L460.908 135.074C460.505 136.337 460.091 137.598 459.667 138.857L460.615 139.176C460.189 140.44 459.754 141.702 459.308 142.962L458.365 142.628C457.924 143.876 457.472 145.121 457.011 146.364L457.949 146.712C457.486 147.959 457.014 149.204 456.532 150.447L455.6 150.085C455.119 151.323 454.629 152.558 454.13 153.792L455.056 154.167C454.557 155.4 454.048 156.631 453.529 157.859L452.608 157.47C452.093 158.69 451.568 159.908 451.035 161.123L451.95 161.525C451.415 162.744 450.87 163.961 450.316 165.175L449.406 164.76C448.855 165.968 448.294 167.174 447.725 168.377L448.629 168.805C448.06 170.005 447.483 171.203 446.897 172.398L445.999 171.957C445.415 173.148 444.822 174.336 444.22 175.521L445.112 175.974C444.508 177.163 443.896 178.348 443.275 179.531L442.39 179.066C441.774 180.239 441.149 181.409 440.517 182.576L441.396 183.053C440.762 184.222 440.119 185.388 439.469 186.551L438.596 186.062C437.947 187.221 437.291 188.377 436.626 189.529L437.492 190.029C436.826 191.182 436.152 192.332 435.471 193.479L434.611 192.967C433.934 194.106 433.249 195.242 432.555 196.374L433.408 196.896C432.713 198.032 432.01 199.163 431.299 200.292L430.453 199.758C429.744 200.883 429.028 202.004 428.304 203.121L429.143 203.665C428.42 204.78 427.689 205.892 426.951 207L426.119 206.445C425.383 207.549 424.64 208.649 423.89 209.746L424.715 210.31C423.962 211.41 423.202 212.506 422.435 213.597L421.617 213.022C420.853 214.108 420.083 215.189 419.305 216.267L420.116 216.852C419.337 217.931 418.552 219.006 417.759 220.076L416.955 219.481C416.165 220.548 415.368 221.61 414.564 222.669L415.36 223.274C414.553 224.335 413.74 225.392 412.92 226.444L412.131 225.83C411.316 226.876 410.494 227.918 409.666 228.955L410.447 229.579C409.616 230.619 408.778 231.655 407.934 232.686L407.16 232.052C406.318 233.08 405.47 234.103 404.616 235.121L405.382 235.764C404.526 236.784 403.663 237.8 402.794 238.81L402.036 238.158C401.171 239.164 400.299 240.166 399.421 241.163L400.172 241.824C399.291 242.823 398.404 243.818 397.511 244.807L396.769 244.137C395.879 245.124 394.983 246.105 394.081 247.081L394.815 247.76C393.912 248.737 393.002 249.71 392.086 250.678L391.36 249.99C390.447 250.955 389.528 251.914 388.604 252.868L389.322 253.564C388.395 254.52 387.462 255.472 386.523 256.417L385.813 255.713C384.878 256.656 383.936 257.593 382.989 258.524L383.691 259.237C382.741 260.172 381.786 261.1 380.825 262.023L380.133 261.302C379.175 262.222 378.212 263.137 377.243 264.046L377.927 264.775C376.956 265.686 375.979 266.592 374.996 267.492L374.321 266.754C373.341 267.652 372.356 268.544 371.366 269.429L372.033 270.175C371.04 271.063 370.041 271.945 369.038 272.821L368.38 272.068C367.38 272.941 366.375 273.809 365.364 274.67L366.013 275.431C364.998 276.295 363.979 277.154 362.955 278.006L362.315 277.237C361.293 278.086 360.267 278.93 359.236 279.767L359.866 280.543C358.831 281.383 357.792 282.216 356.748 283.042L356.128 282.258C355.086 283.082 354.04 283.9 352.99 284.711L353.601 285.503C352.545 286.318 351.485 287.126 350.421 287.928L349.819 287.129C348.758 287.928 347.692 288.72 346.621 289.506L347.213 290.312C346.139 291.1 345.061 291.88 343.979 292.654L343.398 291.841C342.316 292.614 341.23 293.38 340.14 294.139L340.711 294.96C339.617 295.722 338.519 296.477 337.416 297.224L336.855 296.397C335.756 297.142 334.653 297.88 333.545 298.61L334.096 299.445C332.984 300.179 331.868 300.905 330.748 301.624L330.208 300.782C329.088 301.501 327.965 302.212 326.838 302.915L327.367 303.763C326.236 304.469 325.102 305.167 323.963 305.857L323.445 305.001C322.31 305.689 321.172 306.369 320.03 307.041L320.537 307.903C319.387 308.58 318.233 309.249 317.075 309.91L316.579 309.042C315.425 309.701 314.267 310.352 313.106 310.995L313.59 311.87C312.425 312.515 311.256 313.152 310.084 313.781L309.612 312.9C308.441 313.528 307.267 314.147 306.089 314.759L306.55 315.646C305.366 316.261 304.178 316.868 302.987 317.466L302.538 316.572C301.351 317.168 300.161 317.755 298.968 318.333L299.404 319.233C298.207 319.814 297.006 320.386 295.803 320.949L295.379 320.043C294.173 320.608 292.964 321.163 291.753 321.709L292.164 322.621C290.948 323.169 289.73 323.708 288.508 324.238L288.11 323.321C286.893 323.849 285.674 324.367 284.452 324.877L284.836 325.8C283.605 326.314 282.371 326.818 281.134 327.312L280.763 326.384C279.528 326.878 278.291 327.362 277.051 327.837L277.409 328.771C276.165 329.247 274.919 329.714 273.67 330.171L273.326 329.232C272.08 329.688 270.831 330.135 269.58 330.571L269.91 331.515C268.649 331.955 267.386 332.385 266.121 332.805L265.806 331.856C264.545 332.275 263.283 332.683 262.019 333.081L262.319 334.035C261.05 334.435 259.779 334.824 258.506 335.203L258.22 334.245C256.945 334.624 255.668 334.994 254.389 335.353L254.659 336.315C253.375 336.676 252.089 337.025 250.802 337.364L250.547 336.397C249.265 336.735 247.981 337.062 246.695 337.378L246.934 338.349C245.639 338.668 244.342 338.975 243.044 339.272L242.821 338.297C241.526 338.593 240.229 338.878 238.931 339.152L239.137 340.131C237.834 340.406 236.529 340.669 235.223 340.922L235.033 339.94C233.731 340.192 232.427 340.433 231.122 340.662L231.296 341.647C229.981 341.878 228.666 342.097 227.349 342.305L227.194 341.317C225.883 341.524 224.571 341.719 223.259 341.902L223.397 342.893C222.079 343.077 220.76 343.249 219.44 343.41L219.319 342.417C218 342.578 216.681 342.726 215.362 342.863L215.464 343.857C214.139 343.994 212.812 344.119 211.485 344.232L211.401 343.236C210.08 343.348 208.759 343.448 207.437 343.536L207.503 344.534C206.173 344.622 204.843 344.698 203.513 344.761L203.465 343.762C202.14 343.825 200.815 343.876 199.49 343.914L199.518 344.914C198.187 344.952 196.855 344.978 195.524 344.99L195.514 343.99C194.851 343.997 194.189 344 193.526 344C192.855 344 192.184 343.997 191.514 343.992L191.506 344.992C190.161 344.982 188.818 344.961 187.478 344.93L187.501 343.93C186.166 343.899 184.834 343.858 183.504 343.807L183.466 344.806C182.127 344.754 180.791 344.692 179.458 344.62L179.512 343.622C178.173 343.549 176.837 343.466 175.504 343.373L175.435 344.371C174.097 344.277 172.761 344.174 171.429 344.06L171.514 343.064C170.186 342.95 168.861 342.826 167.54 342.693L167.439 343.687C166.1 343.552 164.764 343.406 163.431 343.25L163.547 342.257C162.219 342.101 160.895 341.936 159.574 341.76L159.442 342.751C158.116 342.575 156.792 342.388 155.473 342.191L155.62 341.202C154.295 341.005 152.974 340.797 151.656 340.58L151.493 341.566C150.168 341.347 148.847 341.118 147.53 340.879L147.709 339.895C146.397 339.657 145.088 339.409 143.783 339.151L143.589 340.132C142.271 339.872 140.957 339.601 139.647 339.32L139.857 338.342C138.549 338.062 137.245 337.772 135.946 337.472L135.721 338.446C134.416 338.145 133.115 337.833 131.817 337.512L132.058 336.541C130.76 336.22 129.466 335.889 128.177 335.548L127.921 336.514C126.623 336.171 125.33 335.818 124.04 335.455L124.311 334.492C123.027 334.13 121.746 333.759 120.47 333.378L120.184 334.336C118.899 333.952 117.618 333.558 116.342 333.154L116.643 332.201C115.368 331.798 114.098 331.385 112.832 330.962L112.515 331.911C111.244 331.487 109.977 331.053 108.716 330.609L109.047 329.666C107.787 329.223 106.532 328.77 105.281 328.308L104.935 329.246C103.676 328.781 102.421 328.306 101.172 327.822L101.533 326.89C100.289 326.407 99.049 325.915 97.8142 325.414L97.438 326.34C96.196 325.836 94.959 325.322 93.7271 324.799L94.1179 323.879C92.8875 323.356 91.6621 322.824 90.4418 322.283L90.0364 323.197C88.8113 322.654 87.5914 322.101 86.3768 321.539L86.7968 320.631C85.5852 320.071 84.379 319.501 83.1781 318.922L82.7438 319.823C81.535 319.24 80.3317 318.648 79.1339 318.047L79.5824 317.153C78.3894 316.554 77.2018 315.946 76.0198 315.329L75.5571 316.216C74.369 315.596 73.1866 314.967 72.01 314.329L72.4867 313.45C71.3119 312.813 70.1429 312.167 68.9797 311.512L68.4891 312.383C67.3212 311.725 66.1592 311.059 65.0032 310.384L65.5076 309.52C64.3551 308.847 63.2085 308.165 62.0679 307.474L61.5499 308.33C60.4025 307.635 59.2611 306.931 58.1259 306.219L58.6574 305.372C57.5267 304.662 56.4022 303.944 55.2838 303.217L54.7389 304.056C53.6154 303.325 52.4981 302.587 51.3872 301.839L51.9453 301.01C50.8369 300.264 49.7348 299.51 48.6391 298.747L48.0679 299.568C46.9679 298.802 45.8744 298.028 44.7875 297.246L45.3717 296.434C44.2885 295.655 43.2118 294.867 42.1419 294.07L41.5448 294.873C40.4691 294.072 39.4 293.263 38.3378 292.446L38.9474 291.653C37.8894 290.84 36.8381 290.018 35.7937 289.188L35.1715 289.97C34.1225 289.137 33.0804 288.295 32.0453 287.445L32.6798 286.672C31.6477 285.825 30.6225 284.969 29.6045 284.106L28.9577 284.869C27.9356 284.002 26.9206 283.128 25.9129 282.245L26.5716 281.493C25.5676 280.614 24.5707 279.727 23.581 278.832L22.9104 279.574C21.916 278.675 20.929 277.768 19.9494 276.853L20.6318 276.122C19.6561 275.212 18.6878 274.293 17.727 273.367L17.0331 274.087C16.0682 273.158 15.1109 272.22 14.1613 271.275L14.8666 270.566C13.9202 269.625 12.9815 268.676 12.0504 267.72L11.3339 268.417C10.3991 267.457 9.4721 266.49 8.55289 265.515L9.28043 264.829C8.36481 263.858 7.45699 262.88 6.55706 261.894L5.81866 262.569C4.915 261.579 4.01926 260.582 3.13155 259.579L3.88063 258.916C2.99645 257.916 2.12027 256.91 1.2522 255.896L0.49263 256.546C-0.378868 255.529 -1.24224 254.504 -2.09739 253.472L-1.3275 252.834C-2.17912 251.807 -3.02254 250.772 -3.85767 249.731L-4.63768 250.357C-5.47616 249.312 -6.30631 248.26 -7.12804 247.201L-6.33809 246.588C-7.15637 245.534 -7.96627 244.473 -8.76768 243.406L-9.56738 244.006C-10.3716 242.935 -11.1674 241.857 -11.9545 240.773L-11.1453 240.185C-11.9293 239.105 -12.7047 238.019 -13.4714 236.926L-14.29 237.501C-15.0596 236.404 -15.8204 235.301 -16.5725 234.191L-15.7447 233.63C-16.4932 232.526 -17.2328 231.416 -17.9637 230.299L-18.8004 230.847C-19.5342 229.726 -20.2591 228.598 -20.975 227.465L-20.1295 226.931C-20.8422 225.803 -21.5459 224.669 -22.2406 223.529L-23.0946 224.049C-23.7913 222.905 -24.4789 221.756 -25.1574 220.601L-24.2951 220.094C-24.9709 218.944 -25.6375 217.787 -26.295 216.625L-27.1654 217.117C-27.825 215.951 -28.4754 214.779 -29.1165 213.602L-28.2382 213.124C-28.8757 211.953 -29.5039 210.776 -30.1228 209.594L-31.0087 210.058C-31.6301 208.871 -32.2421 207.678 -32.8445 206.48L-31.9512 206.031C-32.5507 204.839 -33.1408 203.642 -33.7213 202.439L-34.6219 202.873C-35.2036 201.668 -35.7758 200.458 -36.3384 199.242L-35.4308 198.822C-35.9911 197.611 -36.5417 196.395 -37.0827 195.174L-37.997 195.579C-38.5397 194.354 -39.0726 193.124 -39.5958 191.889L-38.675 191.499C-39.1946 190.272 -39.7045 189.04 -40.2047 187.803L-41.1317 188.178C-41.6339 186.936 -42.1262 185.689 -42.6086 184.438L-41.6755 184.078C-42.1554 182.833 -42.6254 181.583 -43.0855 180.328L-44.0244 180.673C-44.4848 179.417 -44.9352 178.157 -45.3756 176.892L-44.4312 176.563C-44.8698 175.303 -45.2984 174.039 -45.717 172.77L-46.6666 173.083C-47.0864 171.811 -47.4961 170.534 -47.8955 169.252L-46.9408 168.955C-47.337 167.684 -47.7231 166.408 -48.099 165.129L-49.0585 165.41C-49.4359 164.126 -49.8032 162.837 -50.1601 161.543L-49.1962 161.277C-49.5513 159.99 -49.8962 158.699 -50.2308 157.404L-51.199 157.654C-51.5332 156.361 -51.8571 155.063 -52.1707 153.762L-51.1985 153.527C-51.5107 152.231 -51.8127 150.931 -52.1042 149.627L-53.0801 149.845C-53.3727 148.536 -53.6549 147.224 -53.9265 145.907L-52.9471 145.705C-53.2158 144.403 -53.4742 143.097 -53.7221 141.787L-54.7046 141.973C-54.9536 140.658 -55.192 139.34 -55.4199 138.017L-54.4344 137.848C-54.6614 136.531 -54.8778 135.21 -55.0836 133.887L-56.0717 134.04C-56.2767 132.722 -56.4712 131.4 -56.6552 130.074L-55.6647 129.937C-55.8478 128.617 -56.0204 127.294 -56.1824 125.968L-57.175 126.089C-57.3377 124.758 -57.4897 123.423 -57.631 122.085L-56.6365 121.98C-56.7761 120.658 -56.9051 119.333 -57.0235 118.005L-58.0196 118.093C-58.1383 116.762 -58.2464 115.427 -58.3438 114.09L-57.3464 114.017C-57.4434 112.685 -57.5297 111.35 -57.6053 110.012L-58.6037 110.068C-58.679 108.735 -58.7437 107.398 -58.7977 106.059L-57.7985 106.019C-57.8521 104.69 -57.895 103.358 -57.9273 102.023L-58.927 102.047C-58.9594 100.707 -58.981 99.3647 -58.9919 98.0196L-57.9919 98.0116C-57.9973 97.3417 -58 96.6711 -58 96C-58 95.3288 -57.9973 94.6581 -57.9919 93.9882L-58.9919 93.9801C-58.981 92.635 -58.9594 91.2924 -58.927 89.9524L-57.9273 89.9766C-57.895 88.642 -57.8521 87.31 -57.7985 85.9807L-58.7977 85.9404C-58.7437 84.6013 -58.679 83.265 -58.6037 81.9314L-57.6053 81.9878C-57.5297 80.6499 -57.4434 79.3149 -57.3464 77.9828L-58.3438 77.9102C-58.2464 76.5726 -58.1383 75.2381 -58.0195 73.9065L-57.0235 73.9953C-56.9051 72.6671 -56.776 71.342 -56.6365 70.0199L-57.6309 69.9149C-57.4897 68.577 -57.3377 67.2422 -57.175 65.9106L-56.1824 66.0318C-56.0204 64.7057 -55.8478 63.3827 -55.6646 62.0631L-56.6551 61.9256C-56.4712 60.6003 -56.2767 59.2782 -56.0717 57.9596L-55.0836 58.1132C-54.8777 56.7895 -54.6613 55.4691 -54.4344 54.1523L-55.4198 53.9825C-55.192 52.6603 -54.9535 51.3416 -54.7046 50.0266L-53.722 50.2126C-53.4741 48.903 -53.2158 47.597 -52.9471 46.2947L-53.9264 46.0926C-53.6548 44.7762 -53.3727 43.4636 -53.0801 42.1549L-52.1042 42.3731C-51.8126 41.069 -51.5107 39.7688 -51.1984 38.4725L-52.1706 38.2383C-51.8571 36.9368 -51.5332 35.6391 -51.199 34.3456L-50.2308 34.5957C-49.8962 33.3006 -49.5513 32.0096 -49.1961 30.7227L-50.1601 30.4567C-49.8032 29.1634 -49.4359 27.8743 -49.0584 26.5894L-48.099 26.8713C-47.7231 25.5917 -47.337 24.3164 -46.9408 23.0454L-47.8955 22.7478C-47.4961 21.4663 -47.0864 20.1892 -46.6666 18.9165L-45.7169 19.2298C-45.2984 17.961 -44.8698 16.6967 -44.4312 15.437L-45.3756 15.1081C-44.9352 13.8432 -44.4847 12.5829 -44.0243 11.3273L-43.0855 11.6716C-42.6254 10.417 -42.1554 9.16708 -41.6755 7.92197L-42.6086 7.56233C-42.1262 6.31075 -41.6339 5.06398 -41.1317 3.82214L-40.2047 4.19704C-39.7045 2.96025 -39.1946 1.72836 -38.675 0.50148L-39.5958 0.111465C-39.0726 -1.12367 -38.5397 -2.35374 -37.9971 -3.5787L-37.0828 -3.17368C-36.5418 -4.39488 -35.9911 -5.61096 -35.4308 -6.82182L-36.3384 -7.24174C-35.7758 -8.45755 -35.2037 -9.66812 -34.6219 -10.8734L-33.7214 -10.4387C-33.1408 -11.6415 -32.5507 -12.839 -31.9512 -14.031L-32.8446 -14.4803C-32.2421 -15.6782 -31.6301 -16.8707 -31.0088 -18.0576L-30.1228 -17.5938C-29.504 -18.7759 -28.8757 -19.9525 -28.2383 -21.1235L-29.1165 -21.6016C-28.4755 -22.7792 -27.8251 -23.951 -27.1654 -25.1172L-26.295 -24.6248C-25.6376 -25.787 -24.971 -26.9435 -24.2952 -28.0941L-25.1575 -28.6005C-24.479 -29.7558 -23.7914 -30.9052 -23.0947 -32.0487L-22.2407 -31.5283C-21.546 -32.6685 -20.8423 -33.8027 -20.1296 -34.9309L-20.9751 -35.465C-20.2592 -36.5983 -19.5343 -37.7255 -18.8005 -38.8465L-17.9638 -38.2989C-17.2329 -39.4154 -16.4932 -40.5258 -15.7448 -41.6299L-16.5726 -42.191C-15.8205 -43.3005 -15.0597 -44.4037 -14.2901 -45.5005L-13.4715 -44.9261C-12.7048 -46.0189 -11.9294 -47.1053 -11.1454 -48.1852L-11.9546 -48.7727C-11.1675 -49.857 -10.3717 -50.9348 -9.56747 -52.006L-8.76777 -51.4056C-7.96636 -52.4731 -7.15647 -53.5339 -6.33818 -54.5881L-7.12814 -55.2013C-6.30641 -56.2599 -5.47625 -57.3119 -4.63778 -58.357L-3.85777 -57.7313C-3.02264 -58.7723 -2.17921 -59.8065 -1.32759 -60.8339L-2.09748 -61.4721C-1.24234 -62.5037 -0.378975 -63.5284 0.492519 -64.5462L1.25209 -63.8958C2.12017 -64.9095 2.99635 -65.9163 3.88052 -66.9161L3.13144 -67.5785C4.01915 -68.5823 4.91488 -69.5789 5.81855 -70.5684L6.55695 -69.894C7.45687 -70.8794 8.36469 -71.8576 9.28031 -72.8286L8.55277 -73.5147C9.47198 -74.4894 10.399 -75.4569 11.3338 -76.4171L12.0503 -75.7195C12.9813 -76.6758 13.9201 -77.6248 14.8665 -78.5663L14.1612 -79.2752C15.1108 -80.22 16.0681 -81.1574 17.0329 -82.0872L17.7269 -81.3671C18.6877 -82.2931 19.656 -83.2115 20.6317 -84.1223L19.9493 -84.8533C20.9289 -85.7677 21.9159 -86.6745 22.9103 -87.5735L23.5809 -86.8317C24.5705 -87.7264 25.5674 -88.6135 26.5715 -89.4927L25.9128 -90.245C26.9205 -91.1275 27.9355 -92.0021 28.9576 -92.8688L29.6044 -92.1061C30.6224 -92.9694 31.6476 -93.8247 32.6797 -94.6721L32.0452 -95.445C33.0803 -96.2948 34.1224 -97.1366 35.1713 -97.9703L35.7935 -97.1874C36.838 -98.0175 37.8892 -98.8395 38.9473 -99.6533L38.3376 -100.446C39.3999 -101.263 40.4689 -102.072 41.5447 -102.872L42.1417 -102.07C43.2117 -102.866 44.2883 -103.655 45.3716 -104.434L44.7873 -105.246C45.8743 -106.028 46.9678 -106.802 48.0677 -107.568L48.639 -106.747C49.7346 -107.51 50.8367 -108.264 51.9452 -109.009L51.387 -109.839C52.4979 -110.586 53.6152 -111.325 54.7388 -112.055L55.2837 -111.217C56.402 -111.944 57.5266 -112.662 58.6573 -113.372L58.1258 -114.219C59.261 -114.931 60.4023 -115.635 61.5497 -116.33L62.0678 -115.474C63.2083 -116.165 64.3549 -116.847 65.5074 -117.52L65.003 -118.384C66.1591 -119.059 67.3211 -119.725 68.4889 -120.383L68.9796 -119.512C70.1428 -120.167 71.3118 -120.813 72.4866 -121.45L72.0099 -122.329C73.1865 -122.967 74.3689 -123.596 75.557 -124.216L76.0197 -123.329C77.2017 -123.946 78.3893 -124.554 79.5824 -125.153L79.1338 -126.047C80.3316 -126.648 81.535 -127.24 82.7437 -127.823L83.178 -126.922C84.3789 -127.501 85.5852 -128.071 86.7967 -128.631L86.3768 -129.539C87.5914 -130.101 88.8113 -130.654 90.0363 -131.197L90.4418 -130.283C91.662 -130.824 92.8874 -131.356 94.1179 -131.879L93.727 -132.799C94.959 -133.322 96.196 -133.836 97.438 -134.34L97.8142 -133.414C99.049 -133.915 100.289 -134.407 101.533 -134.89L101.172 -135.822C102.421 -136.306 103.676 -136.781 104.935 -137.246L105.281 -136.308C106.532 -136.77 107.787 -137.223 109.047 -137.666L108.716 -138.609C109.978 -139.053 111.244 -139.487 112.515 -139.911L112.832 -138.962C114.098 -139.385 115.368 -139.798 116.643 -140.201L116.342 -141.154C117.618 -141.558 118.899 -141.952 120.184 -142.336L120.47 -141.378C121.746 -141.759 123.027 -142.13 124.311 -142.492L124.04 -143.455C125.33 -143.818 126.623 -144.171 127.921 -144.514L128.177 -143.548C129.467 -143.889 130.76 -144.22 132.058 -144.541L131.818 -145.512C133.115 -145.833 134.416 -146.145 135.721 -146.446L135.946 -145.472C137.246 -145.772 138.549 -146.062 139.857 -146.342L139.647 -147.32C140.957 -147.601 142.271 -147.872 143.589 -148.132L143.783 -147.151C145.088 -147.409 146.397 -147.657 147.709 -147.896L147.53 -148.879C148.848 -149.118 150.168 -149.347 151.493 -149.566L151.656 -148.58C152.974 -148.797 154.295 -149.005 155.62 -149.202L155.473 -150.191C156.793 -150.388 158.116 -150.575 159.442 -150.751L159.574 -149.76C160.895 -149.936 162.22 -150.101 163.547 -150.257L163.431 -151.25C164.764 -151.406 166.1 -151.552 167.439 -151.687L167.54 -150.693C168.862 -150.826 170.187 -150.95 171.515 -151.064L171.429 -152.06C172.762 -152.174 174.097 -152.277 175.435 -152.371L175.505 -151.373C176.838 -151.466 178.173 -151.549 179.512 -151.622L179.458 -152.62C180.791 -152.692 182.127 -152.754 183.466 -152.806L183.505 -151.807C184.834 -151.858 186.167 -151.899 187.502 -151.93L187.478 -152.93C188.819 -152.961 190.161 -152.982 191.506 -152.992L191.514 -151.992C192.184 -151.997 192.855 -152 193.526 -152C194.196 -152 194.865 -151.998 195.535 -151.994L195.54 -152.994C196.883 -152.987 198.226 -152.971 199.569 -152.949L199.552 -151.949C200.891 -151.926 202.229 -151.896 203.568 -151.858L203.596 -152.858C204.938 -152.82 206.281 -152.774 207.622 -152.721L207.583 -151.722C208.921 -151.669 210.259 -151.609 211.597 -151.541L211.648 -152.54C212.989 -152.472 214.329 -152.396 215.67 -152.313L215.608 -151.315C216.944 -151.232 218.28 -151.142 219.615 -151.044L219.688 -152.041C221.028 -151.943 222.367 -151.838 223.706 -151.725L223.622 -150.728C224.956 -150.616 226.29 -150.495 227.623 -150.368L227.718 -151.363C229.055 -151.235 230.39 -151.1 231.725 -150.957L231.618 -149.963C232.951 -149.82 234.282 -149.67 235.612 -149.513L235.729 -150.506C237.064 -150.348 238.397 -150.183 239.728 -150.011L239.6 -149.019C240.928 -148.847 242.254 -148.667 243.579 -148.48L243.719 -149.471C245.049 -149.283 246.378 -149.088 247.705 -148.886L247.555 -147.897C248.88 -147.695 250.203 -147.486 251.524 -147.269L251.686 -148.256C253.012 -148.038 254.335 -147.814 255.657 -147.582L255.484 -146.597C256.803 -146.365 258.12 -146.126 259.435 -145.88L259.619 -146.863C260.941 -146.616 262.261 -146.361 263.578 -146.099L263.383 -145.118C264.697 -144.857 266.008 -144.588 267.318 -144.312L267.524 -145.291C268.837 -145.014 270.148 -144.73 271.457 -144.439L271.24 -143.463C272.549 -143.171 273.856 -142.872 275.161 -142.566L275.389 -143.54C276.698 -143.233 278.003 -142.918 279.306 -142.597L279.066 -141.626C280.366 -141.305 281.662 -140.977 282.956 -140.642L283.207 -141.61C284.509 -141.273 285.809 -140.928 287.105 -140.576L286.843 -139.611C288.137 -139.26 289.427 -138.901 290.715 -138.535L290.988 -139.497C292.279 -139.13 293.567 -138.756 294.852 -138.375L294.568 -137.416C295.853 -137.035 297.136 -136.646 298.414 -136.25L298.71 -137.205C299.995 -136.807 301.276 -136.402 302.554 -135.989L302.247 -135.038C303.521 -134.626 304.791 -134.208 306.058 -133.782L306.376 -134.73C307.65 -134.302 308.921 -133.866 310.188 -133.423L309.857 -132.479C311.124 -132.036 312.386 -131.586 313.645 -131.129L313.986 -132.069C315.249 -131.61 316.507 -131.144 317.761 -130.671L317.408 -129.736C318.661 -129.263 319.91 -128.782 321.155 -128.295L321.519 -129.226C322.773 -128.735 324.022 -128.237 325.267 -127.732L324.89 -126.805C326.131 -126.301 327.368 -125.79 328.599 -125.272L328.987 -126.193C330.225 -125.673 331.458 -125.144 332.686 -124.609L332.286 -123.692C333.517 -123.156 334.743 -122.612 335.964 -122.061L336.375 -122.972C337.6 -122.419 338.82 -121.859 340.035 -121.291L339.611 -120.385C340.823 -119.819 342.03 -119.246 343.231 -118.665L343.666 -119.565C344.88 -118.979 346.087 -118.385 347.29 -117.784L346.843 -116.89C348.041 -116.291 349.234 -115.684 350.421 -115.07L350.88 -115.959C352.072 -115.343 353.258 -114.72 354.438 -114.089L353.966 -113.207C355.151 -112.574 356.33 -111.934 357.503 -111.286L357.987 -112.161C359.164 -111.511 360.335 -110.854 361.5 -110.189L361.004 -109.321C362.165 -108.658 363.319 -107.988 364.468 -107.311L364.976 -108.173C366.137 -107.488 367.291 -106.796 368.44 -106.097L367.919 -105.243C369.064 -104.546 370.202 -103.841 371.333 -103.129L371.865 -103.976C373.001 -103.261 374.129 -102.54 375.251 -101.811L374.706 -100.972C375.831 -100.24 376.95 -99.5011 378.062 -98.7545L378.619 -99.5847C379.736 -98.8348 380.845 -98.0775 381.947 -97.3127L381.377 -96.4912C382.475 -95.7293 383.566 -94.9602 384.649 -94.1837L385.231 -94.9964C386.327 -94.2113 387.414 -93.4187 388.494 -92.6187L387.899 -91.8152C388.975 -91.0177 390.044 -90.2127 391.105 -89.4004L391.713 -90.1944C392.778 -89.3788 393.835 -88.5558 394.884 -87.7254L394.263 -86.9413C395.316 -86.1085 396.36 -85.2682 397.395 -84.4205L398.029 -85.1943C399.069 -84.3425 400.102 -83.4832 401.126 -82.6165L400.479 -81.8533C401.499 -80.9901 402.51 -80.1196 403.513 -79.2417L404.171 -79.9939C405.185 -79.1064 406.189 -78.2113 407.185 -77.3086L406.514 -76.5678C407.506 -75.6686 408.489 -74.7619 409.462 -73.8479L410.147 -74.5771C411.125 -73.659 412.094 -72.7336 413.053 -71.8007L412.356 -71.0836C413.318 -70.1488 414.27 -69.2066 415.213 -68.2569L415.923 -68.9613C416.87 -68.0073 417.807 -67.0457 418.734 -66.0767L418.012 -65.3852C418.936 -64.4202 419.85 -63.4479 420.754 -62.4682L421.489 -63.1463C422.402 -62.1569 423.304 -61.1599 424.197 -60.1555L423.45 -59.4912C424.338 -58.4914 425.216 -57.4842 426.084 -56.4696L426.844 -57.1197C427.717 -56.0997 428.579 -55.0722 429.431 -54.0373L428.659 -53.4019C429.509 -52.3681 430.349 -51.3269 431.179 -50.2783L431.963 -50.8986C432.796 -49.8449 433.619 -48.7838 434.43 -47.7152L433.634 -47.1104C434.442 -46.0464 435.239 -44.975 436.025 -43.8963L436.833 -44.4851C437.624 -43.3987 438.405 -42.3049 439.173 -41.2036L438.353 -40.6312C439.118 -39.5355 439.872 -38.4325 440.614 -37.3222L441.445 -37.8778C442.191 -36.7614 442.926 -35.6377 443.648 -34.5067L442.806 -33.9683C443.525 -32.8424 444.232 -31.7091 444.928 -30.5687L445.782 -31.0894C446.481 -29.943 447.168 -28.7893 447.844 -27.6284L446.979 -27.1257C447.65 -25.9714 448.309 -24.8099 448.956 -23.6413L449.831 -24.1256C450.481 -22.9515 451.119 -21.7702 451.744 -20.5818L450.859 -20.1163C451.481 -18.9341 452.09 -17.7448 452.687 -16.5485L453.581 -16.9948C454.18 -15.7945 454.766 -14.5869 455.34 -13.3724L454.435 -12.9455C455.005 -11.7394 455.561 -10.5263 456.105 -9.30621L457.019 -9.71332C457.565 -8.48659 458.099 -7.25282 458.62 -6.01205L457.698 -5.62505C458.214 -4.39613 458.717 -3.16031 459.206 -1.91763L460.137 -2.28432C460.628 -1.03758 461.106 0.216019 461.571 1.47647L460.633 1.8226C461.096 3.07617 461.545 4.33653 461.981 5.60367L462.927 5.27837C463.362 6.54391 463.784 7.81619 464.193 9.09515L463.24 9.39954C463.646 10.6683 464.038 11.9436 464.416 13.2256L465.375 12.9423C465.756 14.2313 466.123 15.5269 466.477 16.8292L465.512 17.0912C465.86 18.3739 466.195 19.663 466.516 20.9586L467.487 20.7178C467.809 22.0169 468.118 23.3224 468.413 24.6342L467.437 24.8536C467.731 26.1583 468.01 27.4694 468.276 28.7868L469.257 28.5888C469.521 29.8972 469.772 31.2117 470.009 32.5324L469.024 32.7091C469.259 34.0184 469.481 35.3337 469.689 36.6552L470.677 36.4998C470.886 37.8283 471.081 39.1629 471.262 40.5036L470.271 40.6377C470.449 41.9525 470.614 43.2732 470.765 44.5997L471.758 44.4867C471.909 45.814 472.047 47.1472 472.171 48.4861L471.175 48.5782C471.298 49.9102 471.408 51.2479 471.504 52.5914L472.501 52.5202C472.596 53.8512 472.678 55.1877 472.746 56.5298L471.747 56.5804C471.814 57.9057 471.868 59.2364 471.909 60.5726L472.908 60.5423Z" stroke="black" stroke-opacity="0.26" stroke-width="2" stroke-dasharray="4 4"/>
<path d="M-981 -307H-88C132.914 -307 312 -127.914 312 93V271H-981V-307Z" fill="#ECF7FF"/>
<g filter="url(#filter0_d_0_1)">
<rect x="-19" y="-18" width="308" height="192" rx="10" fill="white"/>
</g>
<rect width="52" height="48" rx="10" fill="#D4F0FF"/>
<path d="M26.3561 28.39C24.7278 28.39 23.1 27.77 21.8605 26.5305C19.3819 24.052 19.3819 20.0184 21.8605 17.5398C24.3395 15.0613 28.373 15.0609 30.8516 17.5398C33.3306 20.0184 33.3306 24.052 30.8516 26.5305C29.6121 27.77 27.9839 28.39 26.3561 28.39ZM26.3557 16.4681C24.9295 16.4681 23.5029 17.0109 22.417 18.0968C20.2453 20.2685 20.2453 23.8019 22.417 25.9736C24.5888 28.1454 28.1225 28.1454 30.2943 25.9736C32.466 23.8019 32.466 20.2685 30.2943 18.0968C29.2084 17.0113 27.7822 16.4681 26.3557 16.4681Z" fill="#331B3B"/>
<path d="M39.2719 32.8646L34.0371 27.6294C33.5589 27.1513 32.8334 27.0764 32.2706 27.3935L31.1154 26.2383C33.3195 23.7444 33.236 19.9247 30.8511 17.5402C28.3729 15.0613 24.339 15.0617 21.86 17.5402C19.3815 20.0188 19.3815 24.0524 21.86 26.5309C23.0995 27.77 24.7274 28.3904 26.3556 28.3904C27.8601 28.3904 29.3607 27.8539 30.5585 26.7956L31.7137 27.9508C31.3966 28.5136 31.4711 29.2387 31.9496 29.7173L37.1848 34.9521C37.4625 35.2302 37.8331 35.3834 38.2282 35.3834C38.6232 35.3834 38.9938 35.2302 39.2715 34.9521C39.5496 34.674 39.7028 34.3034 39.7028 33.9084C39.7028 33.5133 39.55 33.1423 39.2719 32.8646ZM22.4173 25.974C20.2456 23.8023 20.2456 20.2689 22.4173 18.0972C23.5032 17.0113 24.9294 16.4685 26.356 16.4685C27.7825 16.4685 29.2087 17.0113 30.2946 18.0972C32.4664 20.2689 32.4664 23.8023 30.2946 25.974C28.1228 28.1458 24.5887 28.1454 22.4173 25.974ZM38.715 34.3952C38.4566 34.6536 38.0005 34.6536 37.7418 34.3952L32.5065 29.16C32.2383 28.8913 32.2383 28.455 32.5065 28.1863C32.6408 28.0524 32.8169 27.9851 32.9933 27.9851C33.1694 27.9851 33.3458 28.052 33.4798 28.1863L38.7146 33.4216C38.8438 33.5507 38.9151 33.7236 38.9151 33.908C38.9151 34.0923 38.8442 34.2656 38.715 34.3952Z" fill="#331B3B"/>
<path d="M22.2342 24.2985C22.1149 24.2985 21.9971 24.2445 21.9199 24.1425C21.7888 23.9692 21.8226 23.7219 21.9963 23.5907L27.6802 19.289C27.7692 19.222 27.8818 19.1952 27.9913 19.2161C28.1004 19.237 28.1961 19.3028 28.254 19.3977L30.0142 22.2827L30.6066 21.8573C30.7822 21.7297 31.0288 21.7707 31.1564 21.9475C31.2832 22.1244 31.243 22.3702 31.0662 22.4974L30.1292 23.1705C30.0402 23.2343 29.9279 23.2591 29.8216 23.2367C29.7141 23.215 29.6203 23.1492 29.5636 23.0559L27.809 20.1799L22.4721 24.2186C22.4004 24.2725 22.3169 24.2985 22.2342 24.2985Z" fill="#331B3B"/>
<path d="M36.5795 28.863C36.7973 28.863 36.9734 28.6869 36.9734 28.4691V9.24038C36.9734 8.15725 36.0923 7.27618 35.0092 7.27618H18.2606C17.1774 7.27618 16.2968 8.15725 16.2968 9.24038V40.76C16.2968 41.8427 17.1778 42.7238 18.2606 42.7238H35.0088C36.0919 42.7238 36.973 41.8427 36.973 40.76V35.975C36.973 35.7572 36.7969 35.5811 36.5791 35.5811C36.3613 35.5811 36.1852 35.7572 36.1852 35.975V36.9931H17.0845V25.3108L18.1046 26.9803C18.1625 27.0753 18.2582 27.141 18.3673 27.1619C18.3917 27.1666 18.4161 27.169 18.4405 27.169C18.5256 27.169 18.6091 27.1414 18.6784 27.0894L19.927 26.145C20.1003 26.0134 20.1345 25.7665 20.0034 25.5932C19.8718 25.4199 19.6249 25.3856 19.4516 25.5167L18.55 26.1989L17.0845 23.8003V11.7946H36.1856V17.8498L33.3478 19.8888C33.171 20.0157 33.1304 20.2618 33.2577 20.4387C33.3345 20.5458 33.4554 20.6029 33.5779 20.6029C33.6574 20.6029 33.7378 20.5789 33.8071 20.5289L36.1856 18.8199V28.4695C36.1856 28.6865 36.3617 28.863 36.5795 28.863ZM36.1856 37.7808V40.7596C36.1856 41.4079 35.6579 41.9357 35.0092 41.9357H18.2606C17.6123 41.9357 17.0845 41.4079 17.0845 40.7596V37.7808H36.1856ZM17.0845 11.0068V9.24038C17.0845 8.59168 17.6123 8.06391 18.2606 8.06391H35.0088C35.6575 8.06391 36.1852 8.59168 36.1852 9.24038V11.0068H17.0845Z" fill="#331B3B"/>
<path d="M26.6349 41.278C25.8638 41.278 25.2363 40.6505 25.2363 39.8793C25.2363 39.1082 25.8638 38.4803 26.6349 38.4803C27.4061 38.4803 28.0335 39.1082 28.0335 39.8793C28.0335 40.6505 27.4061 41.278 26.6349 41.278ZM26.6349 39.2685C26.2982 39.2685 26.0241 39.5426 26.0241 39.8797C26.0241 40.2169 26.2982 40.4906 26.6349 40.4906C26.9717 40.4906 27.2458 40.2169 27.2458 39.8797C27.2458 39.5426 26.9721 39.2685 26.6349 39.2685Z" fill="#331B3B"/>
<path d="M29.032 9.90244H24.2379C24.0204 9.90244 23.844 9.72599 23.844 9.50858C23.844 9.29117 24.0204 9.11472 24.2379 9.11472H29.032C29.2498 9.11472 29.4258 9.29117 29.4258 9.50858C29.4258 9.72599 29.2498 9.90244 29.032 9.90244Z" fill="#331B3B"/>
</g>
<defs>
<filter id="filter0_d_0_1" x="-30" y="-29" width="330" height="214" filterUnits="userSpaceOnUse" color-interpolation-filters="sRGB">
<feFlood flood-opacity="0" result="BackgroundImageFix"/>
<feColorMatrix in="SourceAlpha" type="matrix" values="0 0 0 0 0 0 0 0 0 0 0 0 0 0 0 0 0 0 127 0" result="hardAlpha"/>
<feMorphology radius="2" operator="dilate" in="SourceAlpha" result="effect1_dropShadow_0_1"/>
<feOffset/>
<feGaussianBlur stdDeviation="4.5"/>
<feComposite in2="hardAlpha" operator="out"/>
<feColorMatrix type="matrix" values="0 0 0 0 0 0 0 0 0 0 0 0 0 0 0 0 0 0 0.05 0"/>
<feBlend mode="normal" in2="BackgroundImageFix" result="effect1_dropShadow_0_1"/>
<feBlend mode="normal" in="SourceGraphic" in2="effect1_dropShadow_0_1" result="shape"/>
</filter>
<clipPath id="clip0_0_1">
<rect width="1400" height="4093" fill="white" transform="translate(-981 -1155)"/>
</clipPath>
</defs>
</svg>
