<svg width="52" height="48" viewBox="0 0 52 48" fill="none" xmlns="http://www.w3.org/2000/svg">
<rect width="52" height="48" fill="#E5E5E5"/>
<g clip-path="url(#clip0_0_1)">
<rect width="1400" height="4093" transform="translate(-1335 -1155)" fill="white"/>
<path d="M118.908 60.5423C118.949 61.8853 118.976 63.2337 118.99 64.5876L117.99 64.5977C117.997 65.2712 118 65.9462 118 66.6224C118 67.2847 117.997 67.947 117.99 68.6094L118.99 68.6192C118.977 69.9503 118.951 71.2817 118.912 72.6131L117.912 72.5838C117.873 73.9088 117.822 75.2339 117.757 76.5591L118.756 76.6077C118.691 77.938 118.614 79.2684 118.524 80.5986L117.526 80.531C117.437 81.8518 117.335 83.1724 117.22 84.4928L118.216 84.5791C118.102 85.9057 117.974 87.2321 117.834 88.558L116.84 88.4532C116.701 89.7728 116.549 91.092 116.386 92.4108L117.378 92.5338C117.215 93.8526 117.039 95.1709 116.852 96.4885L115.862 96.3476C115.675 97.6593 115.476 98.9703 115.266 100.281L116.253 100.439C116.042 101.755 115.819 103.071 115.584 104.385L114.599 104.209C114.367 105.512 114.122 106.814 113.866 108.115L114.848 108.308C114.591 109.613 114.323 110.917 114.043 112.22L113.066 112.011C112.787 113.308 112.498 114.604 112.197 115.899L113.171 116.125C112.87 117.422 112.558 118.717 112.235 120.01L111.265 119.768C110.944 121.052 110.612 122.335 110.269 123.616L111.235 123.874C110.891 125.161 110.537 126.446 110.171 127.729L109.209 127.456C108.846 128.732 108.472 130.007 108.087 131.28L109.044 131.569C108.66 132.841 108.266 134.11 107.861 135.378L106.908 135.074C106.505 136.337 106.091 137.598 105.667 138.857L106.615 139.176C106.189 140.44 105.754 141.702 105.308 142.962L104.365 142.628C103.924 143.876 103.472 145.121 103.011 146.364L103.949 146.712C103.486 147.959 103.014 149.204 102.532 150.447L101.6 150.085C101.119 151.323 100.629 152.558 100.13 153.792L101.056 154.167C100.557 155.4 100.048 156.631 99.5291 157.859L98.6078 157.47C98.0928 158.69 97.5683 159.908 97.0347 161.123L97.9502 161.525C97.4146 162.744 96.8698 163.961 96.3158 165.175L95.406 164.76C94.8547 165.968 94.2942 167.174 93.7248 168.377L94.6286 168.805C94.0602 170.005 93.4828 171.203 92.8967 172.398L91.9989 171.957C91.4147 173.148 90.8218 174.336 90.2202 175.521L91.1119 175.974C90.5083 177.163 89.8959 178.348 89.275 179.531L88.3896 179.066C87.7737 180.239 87.1494 181.409 86.5168 182.576L87.3958 183.053C86.7617 184.222 86.1194 185.388 85.4687 186.551L84.596 186.062C83.9475 187.221 83.2907 188.377 82.6258 189.529L83.4919 190.029C82.8262 191.182 82.1524 192.332 81.4706 193.479L80.6111 192.967C79.9338 194.106 79.2485 195.242 78.5554 196.374L79.4082 196.896C78.7129 198.032 78.0097 199.163 77.2987 200.292L76.4527 199.758C75.744 200.883 75.0276 202.004 74.3036 203.121L75.1427 203.665C74.4197 204.78 73.6891 205.892 72.951 207L72.1189 206.445C71.3832 207.549 70.6402 208.649 69.8898 209.746L70.715 210.31C69.9622 211.41 69.2021 212.506 68.4348 213.597L67.6167 213.022C66.8533 214.108 66.0827 215.189 65.3051 216.267L66.1159 216.852C65.3373 217.931 64.5516 219.006 63.7589 220.076L62.9553 219.481C62.165 220.548 61.3677 221.61 60.5636 222.669L61.3598 223.274C60.5534 224.335 59.7401 225.392 58.9201 226.444L58.1313 225.83C57.3161 226.876 56.4941 227.918 55.6656 228.955L56.4469 229.579C55.6158 230.619 54.7781 231.655 53.9339 232.686L53.1602 232.052C52.3185 233.08 51.4703 234.103 50.6157 235.121L51.3817 235.764C50.5256 236.784 49.6632 237.8 48.7944 238.81L48.0362 238.158C47.1707 239.164 46.299 240.166 45.4211 241.163L46.1715 241.824C45.291 242.823 44.4043 243.818 43.5115 244.807L42.769 244.137C41.8791 245.124 40.983 246.105 40.081 247.081L40.8154 247.76C39.9117 248.737 39.0019 249.71 38.0863 250.678L37.36 249.99C36.4472 250.955 35.5284 251.914 34.6039 252.868L35.322 253.564C34.3948 254.52 33.4618 255.472 32.5231 256.417L31.8134 255.713C30.8777 256.656 29.9363 257.593 28.9894 258.524L29.6908 259.237C28.7411 260.172 27.786 261.1 26.8254 262.023L26.1325 261.302C25.1747 262.222 24.2115 263.137 23.243 264.046L23.9272 264.775C22.9556 265.686 21.9787 266.592 20.9965 267.492L20.321 266.754C19.3412 267.652 18.3562 268.544 17.3661 269.429L18.0327 270.175C17.0396 271.063 16.0413 271.945 15.038 272.821L14.3803 272.068C13.3799 272.941 12.3746 273.809 11.3642 274.67L12.0129 275.431C10.9984 276.295 9.97897 277.154 8.95465 278.006L8.31519 277.237C7.29349 278.086 6.26697 278.93 5.23566 279.767L5.86581 280.543C4.83139 281.383 3.79224 282.216 2.74838 283.042L2.12766 282.258C1.08636 283.082 0.0404358 283.9 -1.01004 284.711L-0.398865 285.503C-1.45453 286.318 -2.51477 287.126 -3.5795 287.928L-4.18094 287.129C-5.24243 287.928 -6.30835 288.72 -7.37863 289.506L-6.78705 290.312C-7.86063 291.1 -8.93857 291.88 -10.0208 292.654L-10.6024 291.841C-11.6841 292.614 -12.77 293.38 -13.86 294.139L-13.2886 294.96C-14.3829 295.722 -15.4814 296.477 -16.584 297.224L-17.1451 296.397C-18.2442 297.142 -19.3474 297.88 -20.4546 298.61L-19.9039 299.445C-21.016 300.179 -22.1321 300.905 -23.2521 301.624L-23.7922 300.782C-24.9117 301.501 -26.0351 302.212 -27.1623 302.915L-26.633 303.763C-27.7638 304.469 -28.8985 305.167 -30.0368 305.857L-30.5551 305.001C-31.6898 305.689 -32.8281 306.369 -33.97 307.041L-33.4628 307.903C-34.6132 308.58 -35.7672 309.249 -36.9248 309.91L-37.4207 309.042C-38.5752 309.701 -39.7331 310.352 -40.8943 310.995L-40.4099 311.87C-41.5751 312.515 -42.7437 313.152 -43.9156 313.781L-44.3882 312.9C-45.5591 313.528 -46.7332 314.147 -47.9105 314.759L-47.4497 315.646C-48.6344 316.261 -49.8223 316.868 -51.0133 317.466L-51.4619 316.572C-52.6489 317.168 -53.8389 317.755 -55.032 318.333L-54.5956 319.233C-55.7932 319.814 -56.9938 320.386 -58.1974 320.949L-58.6212 320.043C-59.8269 320.608 -61.0356 321.163 -62.247 321.709L-61.836 322.621C-63.0517 323.169 -64.2703 323.708 -65.4916 324.238L-65.8896 323.321C-67.1066 323.849 -68.3262 324.367 -69.5484 324.877L-69.1635 325.8C-70.3951 326.314 -71.6294 326.818 -72.8661 327.312L-73.2375 326.384C-74.472 326.878 -75.7091 327.362 -76.9485 327.837L-76.5909 328.771C-77.8349 329.247 -79.0814 329.714 -80.3301 330.171L-80.6739 329.232C-81.9203 329.688 -83.169 330.135 -84.4199 330.571L-84.0904 331.515C-85.3512 331.955 -86.6142 332.385 -87.8793 332.805L-88.1944 331.856C-89.4546 332.275 -90.7169 332.683 -91.9812 333.081L-91.6808 334.035C-92.95 334.435 -94.2213 334.824 -95.4943 335.203L-95.7797 334.245C-97.0549 334.624 -98.332 334.994 -99.6108 335.353L-99.3407 336.315C-100.625 336.676 -101.911 337.025 -103.198 337.364L-103.453 336.397C-104.735 336.735 -106.019 337.062 -107.305 337.378L-107.066 338.349C-108.361 338.668 -109.658 338.975 -110.956 339.272L-111.179 338.297C-112.474 338.593 -113.771 338.878 -115.069 339.152L-114.863 340.131C-116.166 340.406 -117.471 340.669 -118.777 340.922L-118.967 339.94C-120.269 340.192 -121.573 340.433 -122.878 340.662L-122.704 341.647C-124.019 341.878 -125.334 342.097 -126.651 342.305L-126.806 341.317C-128.117 341.524 -129.429 341.719 -130.741 341.902L-130.603 342.893C-131.921 343.077 -133.24 343.249 -134.56 343.41L-134.681 342.417C-136 342.578 -137.319 342.726 -138.638 342.863L-138.536 343.857C-139.861 343.994 -141.188 344.119 -142.515 344.232L-142.599 343.236C-143.92 343.348 -145.241 343.448 -146.563 343.536L-146.497 344.534C-147.827 344.622 -149.157 344.698 -150.487 344.761L-150.535 343.762C-151.86 343.825 -153.185 343.876 -154.51 343.914L-154.482 344.914C-155.813 344.952 -157.145 344.978 -158.476 344.99L-158.486 343.99C-159.149 343.997 -159.811 344 -160.474 344C-161.145 344 -161.816 343.997 -162.486 343.992L-162.494 344.992C-163.839 344.982 -165.182 344.961 -166.522 344.93L-166.499 343.93C-167.834 343.899 -169.166 343.858 -170.496 343.807L-170.534 344.806C-171.873 344.754 -173.209 344.692 -174.542 344.62L-174.488 343.622C-175.827 343.549 -177.163 343.466 -178.496 343.373L-178.565 344.371C-179.903 344.277 -181.239 344.174 -182.571 344.06L-182.486 343.064C-183.814 342.95 -185.139 342.826 -186.46 342.693L-186.561 343.687C-187.9 343.552 -189.236 343.406 -190.569 343.25L-190.453 342.257C-191.781 342.101 -193.105 341.936 -194.426 341.76L-194.558 342.751C-195.884 342.575 -197.208 342.388 -198.527 342.191L-198.38 341.202C-199.705 341.005 -201.026 340.797 -202.344 340.58L-202.507 341.566C-203.832 341.347 -205.153 341.118 -206.47 340.879L-206.291 339.895C-207.603 339.657 -208.912 339.409 -210.217 339.151L-210.411 340.132C-211.729 339.872 -213.043 339.601 -214.353 339.32L-214.143 338.342C-215.451 338.062 -216.755 337.772 -218.054 337.472L-218.279 338.446C-219.584 338.145 -220.885 337.833 -222.183 337.512L-221.942 336.541C-223.24 336.22 -224.534 335.889 -225.823 335.548L-226.079 336.514C-227.377 336.171 -228.67 335.818 -229.96 335.455L-229.689 334.492C-230.973 334.13 -232.254 333.759 -233.53 333.378L-233.816 334.336C-235.101 333.952 -236.382 333.558 -237.658 333.154L-237.357 332.201C-238.632 331.798 -239.902 331.385 -241.168 330.962L-241.485 331.911C-242.756 331.487 -244.023 331.053 -245.284 330.609L-244.953 329.666C-246.213 329.223 -247.468 328.77 -248.719 328.308L-249.065 329.246C-250.324 328.781 -251.579 328.306 -252.828 327.822L-252.467 326.89C-253.711 326.407 -254.951 325.915 -256.186 325.414L-256.562 326.34C-257.804 325.836 -259.041 325.322 -260.273 324.799L-259.882 323.879C-261.113 323.356 -262.338 322.824 -263.558 322.283L-263.964 323.197C-265.189 322.654 -266.409 322.101 -267.623 321.539L-267.203 320.631C-268.415 320.071 -269.621 319.501 -270.822 318.922L-271.256 319.823C-272.465 319.24 -273.668 318.648 -274.866 318.047L-274.418 317.153C-275.611 316.554 -276.798 315.946 -277.98 315.329L-278.443 316.216C-279.631 315.596 -280.813 314.967 -281.99 314.329L-281.513 313.45C-282.688 312.813 -283.857 312.167 -285.02 311.512L-285.511 312.383C-286.679 311.725 -287.841 311.059 -288.997 310.384L-288.492 309.52C-289.645 308.847 -290.792 308.165 -291.932 307.474L-292.45 308.33C-293.598 307.635 -294.739 306.931 -295.874 306.219L-295.343 305.372C-296.473 304.662 -297.598 303.944 -298.716 303.217L-299.261 304.056C-300.385 303.325 -301.502 302.587 -302.613 301.839L-302.055 301.01C-303.163 300.264 -304.265 299.51 -305.361 298.747L-305.932 299.568C-307.032 298.802 -308.126 298.028 -309.213 297.246L-308.628 296.434C-309.712 295.655 -310.788 294.867 -311.858 294.07L-312.455 294.873C-313.531 294.072 -314.6 293.263 -315.662 292.446L-315.053 291.653C-316.111 290.84 -317.162 290.018 -318.206 289.188L-318.829 289.97C-319.878 289.137 -320.92 288.295 -321.955 287.445L-321.32 286.672C-322.352 285.825 -323.377 284.969 -324.396 284.106L-325.042 284.869C-326.064 284.002 -327.079 283.128 -328.087 282.245L-327.428 281.493C-328.432 280.614 -329.429 279.727 -330.419 278.832L-331.09 279.574C-332.084 278.675 -333.071 277.768 -334.051 276.853L-333.368 276.122C-334.344 275.212 -335.312 274.293 -336.273 273.367L-336.967 274.087C-337.932 273.158 -338.889 272.22 -339.839 271.275L-339.133 270.566C-340.08 269.625 -341.019 268.676 -341.95 267.72L-342.666 268.417C-343.601 267.457 -344.528 266.49 -345.447 265.515L-344.72 264.829C-345.635 263.858 -346.543 262.88 -347.443 261.894L-348.181 262.569C-349.085 261.579 -349.981 260.582 -350.868 259.579L-350.119 258.916C-351.004 257.916 -351.88 256.91 -352.748 255.896L-353.507 256.546C-354.379 255.529 -355.242 254.504 -356.097 253.472L-355.327 252.834C-356.179 251.807 -357.023 250.772 -357.858 249.731L-358.638 250.357C-359.476 249.312 -360.306 248.26 -361.128 247.201L-360.338 246.588C-361.156 245.534 -361.966 244.473 -362.768 243.406L-363.567 244.006C-364.372 242.935 -365.167 241.857 -365.955 240.773L-365.145 240.185C-365.929 239.105 -366.705 238.019 -367.471 236.926L-368.29 237.501C-369.06 236.404 -369.82 235.301 -370.572 234.191L-369.745 233.63C-370.493 232.526 -371.233 231.416 -371.964 230.299L-372.8 230.847C-373.534 229.726 -374.259 228.598 -374.975 227.465L-374.13 226.931C-374.842 225.803 -375.546 224.669 -376.241 223.529L-377.095 224.049C-377.791 222.905 -378.479 221.756 -379.157 220.601L-378.295 220.094C-378.971 218.944 -379.638 217.787 -380.295 216.625L-381.165 217.117C-381.825 215.951 -382.475 214.779 -383.116 213.602L-382.238 213.124C-382.876 211.953 -383.504 210.776 -384.123 209.594L-385.009 210.058C-385.63 208.871 -386.242 207.678 -386.845 206.48L-385.951 206.031C-386.551 204.839 -387.141 203.642 -387.721 202.439L-388.622 202.873C-389.204 201.668 -389.776 200.458 -390.338 199.242L-389.431 198.822C-389.991 197.611 -390.542 196.395 -391.083 195.174L-391.997 195.579C-392.54 194.354 -393.073 193.124 -393.596 191.889L-392.675 191.499C-393.195 190.272 -393.705 189.04 -394.205 187.803L-395.132 188.178C-395.634 186.936 -396.126 185.689 -396.609 184.438L-395.676 184.078C-396.155 182.833 -396.625 181.583 -397.085 180.328L-398.024 180.673C-398.485 179.417 -398.935 178.157 -399.376 176.892L-398.431 176.563C-398.87 175.303 -399.298 174.039 -399.717 172.77L-400.667 173.083C-401.086 171.811 -401.496 170.534 -401.896 169.252L-400.941 168.955C-401.337 167.684 -401.723 166.408 -402.099 165.129L-403.058 165.41C-403.436 164.126 -403.803 162.837 -404.16 161.543L-403.196 161.277C-403.551 159.99 -403.896 158.699 -404.231 157.404L-405.199 157.654C-405.533 156.361 -405.857 155.063 -406.171 153.762L-405.198 153.527C-405.511 152.231 -405.813 150.931 -406.104 149.627L-407.08 149.845C-407.373 148.536 -407.655 147.224 -407.926 145.907L-406.947 145.705C-407.216 144.403 -407.474 143.097 -407.722 141.787L-408.705 141.973C-408.954 140.658 -409.192 139.34 -409.42 138.017L-408.434 137.848C-408.661 136.531 -408.878 135.21 -409.084 133.887L-410.072 134.04C-410.277 132.722 -410.471 131.4 -410.655 130.074L-409.665 129.937C-409.848 128.617 -410.02 127.294 -410.182 125.968L-411.175 126.089C-411.338 124.758 -411.49 123.423 -411.631 122.085L-410.636 121.98C-410.776 120.658 -410.905 119.333 -411.024 118.005L-412.02 118.093C-412.138 116.762 -412.246 115.427 -412.344 114.09L-411.346 114.017C-411.443 112.685 -411.53 111.35 -411.605 110.012L-412.604 110.068C-412.679 108.735 -412.744 107.398 -412.798 106.059L-411.798 106.019C-411.852 104.69 -411.895 103.358 -411.927 102.023L-412.927 102.047C-412.959 100.707 -412.981 99.3647 -412.992 98.0196L-411.992 98.0116C-411.997 97.3417 -412 96.6711 -412 96C-412 95.3288 -411.997 94.6581 -411.992 93.9882L-412.992 93.9801C-412.981 92.635 -412.959 91.2924 -412.927 89.9524L-411.927 89.9766C-411.895 88.642 -411.852 87.31 -411.798 85.9807L-412.798 85.9404C-412.744 84.6013 -412.679 83.265 -412.604 81.9314L-411.605 81.9878C-411.53 80.6499 -411.443 79.3149 -411.346 77.9828L-412.344 77.9102C-412.246 76.5726 -412.138 75.2381 -412.02 73.9065L-411.024 73.9953C-410.905 72.6671 -410.776 71.342 -410.636 70.0199L-411.631 69.9149C-411.49 68.577 -411.338 67.2422 -411.175 65.9106L-410.182 66.0318C-410.02 64.7057 -409.848 63.3827 -409.665 62.0631L-410.655 61.9256C-410.471 60.6003 -410.277 59.2782 -410.072 57.9596L-409.084 58.1132C-408.878 56.7895 -408.661 55.4691 -408.434 54.1523L-409.42 53.9825C-409.192 52.6603 -408.954 51.3416 -408.705 50.0266L-407.722 50.2126C-407.474 48.903 -407.216 47.597 -406.947 46.2947L-407.926 46.0926C-407.655 44.7762 -407.373 43.4636 -407.08 42.1549L-406.104 42.3731C-405.813 41.069 -405.511 39.7688 -405.198 38.4725L-406.171 38.2383C-405.857 36.9368 -405.533 35.6391 -405.199 34.3456L-404.231 34.5957C-403.896 33.3006 -403.551 32.0096 -403.196 30.7227L-404.16 30.4567C-403.803 29.1634 -403.436 27.8743 -403.058 26.5894L-402.099 26.8713C-401.723 25.5917 -401.337 24.3164 -400.941 23.0454L-401.896 22.7478C-401.496 21.4663 -401.086 20.1892 -400.667 18.9165L-399.717 19.2298C-399.298 17.961 -398.87 16.6967 -398.431 15.437L-399.376 15.1081C-398.935 13.8432 -398.485 12.5829 -398.024 11.3273L-397.085 11.6716C-396.625 10.417 -396.155 9.16708 -395.676 7.92197L-396.609 7.56233C-396.126 6.31075 -395.634 5.06398 -395.132 3.82214L-394.205 4.19704C-393.705 2.96025 -393.195 1.72836 -392.675 0.50148L-393.596 0.111465C-393.073 -1.12367 -392.54 -2.35374 -391.997 -3.5787L-391.083 -3.17368C-390.542 -4.39488 -389.991 -5.61096 -389.431 -6.82182L-390.338 -7.24174C-389.776 -8.45755 -389.204 -9.66812 -388.622 -10.8734L-387.721 -10.4387C-387.141 -11.6415 -386.551 -12.839 -385.951 -14.031L-386.845 -14.4803C-386.242 -15.6782 -385.63 -16.8707 -385.009 -18.0576L-384.123 -17.5938C-383.504 -18.7759 -382.876 -19.9525 -382.238 -21.1235L-383.117 -21.6016C-382.475 -22.7792 -381.825 -23.951 -381.165 -25.1172L-380.295 -24.6248C-379.638 -25.787 -378.971 -26.9435 -378.295 -28.0941L-379.157 -28.6005C-378.479 -29.7558 -377.791 -30.9052 -377.095 -32.0487L-376.241 -31.5283C-375.546 -32.6685 -374.842 -33.8027 -374.13 -34.9309L-374.975 -35.465C-374.259 -36.5983 -373.534 -37.7255 -372.8 -38.8465L-371.964 -38.2989C-371.233 -39.4154 -370.493 -40.5258 -369.745 -41.6299L-370.573 -42.191C-369.821 -43.3005 -369.06 -44.4037 -368.29 -45.5005L-367.472 -44.9261C-366.705 -46.0189 -365.929 -47.1053 -365.145 -48.1852L-365.955 -48.7727C-365.167 -49.857 -364.372 -50.9348 -363.567 -52.006L-362.768 -51.4056C-361.966 -52.4731 -361.156 -53.5339 -360.338 -54.5881L-361.128 -55.2013C-360.306 -56.2599 -359.476 -57.3119 -358.638 -58.357L-357.858 -57.7313C-357.023 -58.7723 -356.179 -59.8065 -355.328 -60.8339L-356.097 -61.4721C-355.242 -62.5037 -354.379 -63.5284 -353.507 -64.5462L-352.748 -63.8958C-351.88 -64.9095 -351.004 -65.9163 -350.119 -66.9161L-350.869 -67.5785C-349.981 -68.5823 -349.085 -69.5789 -348.181 -70.5684L-347.443 -69.894C-346.543 -70.8794 -345.635 -71.8576 -344.72 -72.8286L-345.447 -73.5147C-344.528 -74.4894 -343.601 -75.4569 -342.666 -76.4171L-341.95 -75.7195C-341.019 -76.6758 -340.08 -77.6248 -339.134 -78.5663L-339.839 -79.2752C-338.889 -80.22 -337.932 -81.1574 -336.967 -82.0872L-336.273 -81.3671C-335.312 -82.2931 -334.344 -83.2115 -333.368 -84.1223L-334.051 -84.8533C-333.071 -85.7677 -332.084 -86.6745 -331.09 -87.5735L-330.419 -86.8317C-329.429 -87.7264 -328.433 -88.6135 -327.428 -89.4927L-328.087 -90.245C-327.079 -91.1275 -326.064 -92.0021 -325.042 -92.8688L-324.396 -92.1061C-323.378 -92.9694 -322.352 -93.8247 -321.32 -94.6721L-321.955 -95.445C-320.92 -96.2948 -319.878 -97.1366 -318.829 -97.9703L-318.206 -97.1874C-317.162 -98.0175 -316.111 -98.8395 -315.053 -99.6533L-315.662 -100.446C-314.6 -101.263 -313.531 -102.072 -312.455 -102.872L-311.858 -102.07C-310.788 -102.866 -309.712 -103.655 -308.628 -104.434L-309.213 -105.246C-308.126 -106.028 -307.032 -106.802 -305.932 -107.568L-305.361 -106.747C-304.265 -107.51 -303.163 -108.264 -302.055 -109.009L-302.613 -109.839C-301.502 -110.586 -300.385 -111.325 -299.261 -112.055L-298.716 -111.217C-297.598 -111.944 -296.473 -112.662 -295.343 -113.372L-295.874 -114.219C-294.739 -114.931 -293.598 -115.635 -292.45 -116.33L-291.932 -115.474C-290.792 -116.165 -289.645 -116.847 -288.493 -117.52L-288.997 -118.384C-287.841 -119.059 -286.679 -119.725 -285.511 -120.383L-285.02 -119.512C-283.857 -120.167 -282.688 -120.813 -281.513 -121.45L-281.99 -122.329C-280.813 -122.967 -279.631 -123.596 -278.443 -124.216L-277.98 -123.329C-276.798 -123.946 -275.611 -124.554 -274.418 -125.153L-274.866 -126.047C-273.668 -126.648 -272.465 -127.24 -271.256 -127.823L-270.822 -126.922C-269.621 -127.501 -268.415 -128.071 -267.203 -128.631L-267.623 -129.539C-266.409 -130.101 -265.189 -130.654 -263.964 -131.197L-263.558 -130.283C-262.338 -130.824 -261.113 -131.356 -259.882 -131.879L-260.273 -132.799C-259.041 -133.322 -257.804 -133.836 -256.562 -134.34L-256.186 -133.414C-254.951 -133.915 -253.711 -134.407 -252.467 -134.89L-252.828 -135.822C-251.579 -136.306 -250.324 -136.781 -249.065 -137.246L-248.719 -136.308C-247.468 -136.77 -246.213 -137.223 -244.953 -137.666L-245.284 -138.609C-244.022 -139.053 -242.756 -139.487 -241.485 -139.911L-241.168 -138.962C-239.902 -139.385 -238.632 -139.798 -237.357 -140.201L-237.658 -141.154C-236.382 -141.558 -235.101 -141.952 -233.816 -142.336L-233.53 -141.378C-232.254 -141.759 -230.973 -142.13 -229.689 -142.492L-229.96 -143.455C-228.67 -143.818 -227.377 -144.171 -226.079 -144.514L-225.823 -143.548C-224.533 -143.889 -223.24 -144.22 -221.942 -144.541L-222.182 -145.512C-220.885 -145.833 -219.584 -146.145 -218.279 -146.446L-218.054 -145.472C-216.754 -145.772 -215.451 -146.062 -214.143 -146.342L-214.353 -147.32C-213.043 -147.601 -211.729 -147.872 -210.411 -148.132L-210.217 -147.151C-208.912 -147.409 -207.603 -147.657 -206.291 -147.896L-206.47 -148.879C-205.152 -149.118 -203.832 -149.347 -202.507 -149.566L-202.344 -148.58C-201.026 -148.797 -199.705 -149.005 -198.38 -149.202L-198.527 -150.191C-197.207 -150.388 -195.884 -150.575 -194.558 -150.751L-194.426 -149.76C-193.105 -149.936 -191.78 -150.101 -190.453 -150.257L-190.569 -151.25C-189.236 -151.406 -187.9 -151.552 -186.561 -151.687L-186.46 -150.693C-185.138 -150.826 -183.813 -150.95 -182.485 -151.064L-182.571 -152.06C-181.238 -152.174 -179.903 -152.277 -178.565 -152.371L-178.495 -151.373C-177.162 -151.466 -175.827 -151.549 -174.488 -151.622L-174.542 -152.62C-173.209 -152.692 -171.873 -152.754 -170.534 -152.806L-170.495 -151.807C-169.166 -151.858 -167.833 -151.899 -166.498 -151.93L-166.522 -152.93C-165.181 -152.961 -163.839 -152.982 -162.494 -152.992L-162.486 -151.992C-161.816 -151.997 -161.145 -152 -160.474 -152C-159.804 -152 -159.135 -151.998 -158.465 -151.994L-158.46 -152.994C-157.117 -152.987 -155.774 -152.971 -154.431 -152.949L-154.448 -151.949C-153.109 -151.926 -151.771 -151.896 -150.432 -151.858L-150.404 -152.858C-149.062 -152.82 -147.719 -152.774 -146.378 -152.721L-146.417 -151.722C-145.079 -151.669 -143.741 -151.609 -142.403 -151.541L-142.352 -152.54C-141.011 -152.472 -139.671 -152.396 -138.33 -152.313L-138.392 -151.315C-137.056 -151.232 -135.72 -151.142 -134.385 -151.044L-134.312 -152.041C-132.972 -151.943 -131.633 -151.838 -130.294 -151.725L-130.378 -150.728C-129.044 -150.616 -127.71 -150.495 -126.377 -150.368L-126.282 -151.363C-124.945 -151.235 -123.61 -151.1 -122.275 -150.957L-122.382 -149.963C-121.049 -149.82 -119.718 -149.67 -118.388 -149.513L-118.271 -150.506C-116.936 -150.348 -115.603 -150.183 -114.272 -150.011L-114.4 -149.019C-113.072 -148.847 -111.746 -148.667 -110.421 -148.48L-110.281 -149.471C-108.951 -149.283 -107.622 -149.088 -106.295 -148.886L-106.445 -147.897C-105.12 -147.695 -103.797 -147.486 -102.476 -147.269L-102.314 -148.256C-100.988 -148.038 -99.665 -147.814 -98.3434 -147.582L-98.5163 -146.597C-97.1972 -146.365 -95.88 -146.126 -94.5648 -145.88L-94.3809 -146.863C-93.0591 -146.616 -91.7394 -146.361 -90.4219 -146.099L-90.617 -145.118C-89.3032 -144.857 -87.9916 -144.588 -86.6823 -144.312L-86.4761 -145.291C-85.1627 -145.014 -83.8516 -144.73 -82.5429 -144.439L-82.7602 -143.463C-81.4507 -143.171 -80.1436 -142.872 -78.8391 -142.566L-78.6106 -143.54C-77.3024 -143.233 -75.9967 -142.918 -74.6938 -142.597L-74.9335 -141.626C-73.6343 -141.305 -72.3379 -140.977 -71.0443 -140.642L-70.7935 -141.61C-69.4909 -141.273 -68.1913 -140.928 -66.8946 -140.576L-67.1566 -139.611C-65.8631 -139.26 -64.5725 -138.901 -63.2851 -138.535L-63.0118 -139.497C-61.7206 -139.13 -60.4326 -138.756 -59.1479 -138.375L-59.4324 -137.416C-58.1468 -137.035 -56.8644 -136.646 -55.5856 -136.25L-55.2897 -137.205C-54.005 -136.807 -52.7237 -136.402 -51.446 -135.989L-51.7533 -135.038C-50.4794 -134.626 -49.2091 -134.208 -47.9425 -133.782L-47.6239 -134.73C-46.3496 -134.302 -45.0791 -133.866 -43.8125 -133.423L-44.1425 -132.479C-42.8762 -132.036 -41.6137 -131.586 -40.3553 -131.129L-40.0137 -132.069C-38.7515 -131.61 -37.4933 -131.144 -36.2392 -130.671L-36.5922 -129.736C-35.3391 -129.263 -34.0901 -128.782 -32.8455 -128.295L-32.4809 -129.226C-31.2273 -128.735 -29.9781 -128.237 -28.7333 -127.732L-29.1096 -126.805C-27.8688 -126.301 -26.6324 -125.79 -25.4008 -125.272L-25.0128 -126.193C-23.7753 -125.673 -22.5424 -125.144 -21.3142 -124.609L-21.7139 -123.692C-20.4832 -123.156 -19.2573 -122.612 -18.0363 -122.061L-17.6249 -122.972C-16.4001 -122.419 -15.1802 -121.859 -13.9655 -121.291L-14.3888 -120.385C-13.1769 -119.819 -11.9702 -119.246 -10.7689 -118.665L-10.3337 -119.565C-9.12045 -118.979 -7.9126 -118.385 -6.71021 -117.784L-7.15738 -116.89C-5.95898 -116.291 -4.76611 -115.684 -3.57889 -115.07L-3.11969 -115.959C-1.92822 -115.343 -0.742371 -114.72 0.437683 -114.089L-0.0335693 -113.207C1.15134 -112.574 2.33032 -111.934 3.50333 -111.286L3.98676 -112.161C5.16379 -111.511 6.33481 -110.854 7.49966 -110.189L7.004 -109.321C8.16479 -108.658 9.3194 -107.988 10.4677 -107.311L10.9755 -108.173C12.1367 -107.488 13.2914 -106.796 14.4396 -106.097L13.9193 -105.243C15.0638 -104.546 16.2016 -103.841 17.3327 -103.129L17.8653 -103.976C19.0005 -103.261 20.1291 -102.54 21.2507 -101.811L20.7057 -100.972C21.8314 -100.24 22.9501 -99.5011 24.0618 -98.7545L24.6193 -99.5847C25.7358 -98.8348 26.8452 -98.0775 27.9473 -97.3127L27.3772 -96.4912C28.4751 -95.7293 29.5657 -94.9602 30.6488 -94.1837L31.2315 -94.9964C32.3266 -94.2113 33.4142 -93.4187 34.494 -92.6187L33.8987 -91.8152C34.9752 -91.0177 36.0439 -90.2127 37.1047 -89.4004L37.7127 -90.1944C38.7778 -89.3788 39.8349 -88.5558 40.884 -87.7254L40.2634 -86.9413C41.3156 -86.1085 42.3596 -85.2682 43.3953 -84.4205L44.0287 -85.1943C45.0693 -84.3425 46.1017 -83.4832 47.1255 -82.6165L46.4794 -81.8533C47.499 -80.9901 48.5101 -80.1196 49.5125 -79.2417L50.1714 -79.9939C51.1848 -79.1064 52.1895 -78.2113 53.1852 -77.3086L52.5136 -76.5678C53.5056 -75.6686 54.4885 -74.7619 55.4624 -73.8479L56.1468 -74.5771C57.1248 -73.659 58.0938 -72.7336 59.0535 -71.8007L58.3564 -71.0836C59.3181 -70.1488 60.2702 -69.2066 61.2129 -68.2569L61.9226 -68.9613C62.8695 -68.0073 63.8069 -67.0457 64.7345 -66.0767L64.0121 -65.3852C64.9357 -64.4202 65.8496 -63.4479 66.7536 -62.4682L67.4886 -63.1463C68.4015 -62.1569 69.3044 -61.1599 70.1971 -60.1555L69.4496 -59.4912C70.3382 -58.4914 71.2165 -57.4842 72.0844 -56.4696L72.8443 -57.1197C73.7169 -56.0997 74.5791 -55.0722 75.4307 -54.0373L74.6585 -53.4019C75.5092 -52.3681 76.3493 -51.3269 77.1786 -50.2783L77.963 -50.8986C78.7963 -49.8449 79.6187 -48.7838 80.4302 -47.7152L79.6338 -47.1104C80.4418 -46.0464 81.2388 -44.975 82.0246 -43.8963L82.8329 -44.4851C83.6243 -43.3987 84.4045 -42.3049 85.1733 -41.2036L84.3534 -40.6312C85.1183 -39.5355 85.8719 -38.4325 86.6138 -37.3222L87.4453 -37.8778C88.1913 -36.7614 88.9257 -35.6377 89.6483 -34.5067L88.8055 -33.9683C89.5249 -32.8424 90.2325 -31.7091 90.9281 -30.5687L91.7818 -31.0894C92.4811 -29.943 93.1684 -28.7893 93.8435 -27.6284L92.9791 -27.1257C93.6503 -25.9714 94.3095 -24.8099 94.9564 -23.6413L95.8313 -24.1256C96.4811 -22.9515 97.1187 -21.7702 97.7438 -20.5818L96.8588 -20.1163C97.4806 -18.9341 98.0899 -17.7448 98.6866 -16.5485L99.5815 -16.9948C100.18 -15.7945 100.766 -14.5869 101.34 -13.3724L100.435 -12.9455C101.005 -11.7394 101.561 -10.5263 102.105 -9.30621L103.019 -9.71332C103.565 -8.48659 104.099 -7.25282 104.62 -6.01205L103.698 -5.62505C104.214 -4.39613 104.717 -3.16031 105.206 -1.91763L106.137 -2.28432C106.628 -1.03758 107.106 0.216019 107.571 1.47647L106.633 1.8226C107.096 3.07617 107.545 4.33653 107.981 5.60367L108.927 5.27837C109.362 6.54391 109.784 7.81619 110.193 9.09515L109.24 9.39954C109.646 10.6683 110.038 11.9436 110.416 13.2256L111.375 12.9423C111.756 14.2313 112.123 15.5269 112.477 16.8292L111.512 17.0912C111.86 18.3739 112.195 19.663 112.516 20.9586L113.487 20.7178C113.809 22.0169 114.118 23.3224 114.413 24.6342L113.437 24.8536C113.731 26.1583 114.01 27.4694 114.276 28.7868L115.257 28.5888C115.521 29.8972 115.772 31.2117 116.009 32.5324L115.024 32.7091C115.259 34.0184 115.481 35.3337 115.689 36.6552L116.677 36.4998C116.886 37.8283 117.081 39.1629 117.262 40.5036L116.271 40.6377C116.449 41.9525 116.614 43.2732 116.765 44.5997L117.758 44.4867C117.909 45.814 118.047 47.1472 118.171 48.4861L117.175 48.5782C117.298 49.9102 117.408 51.2479 117.504 52.5914L118.501 52.5202C118.596 53.8512 118.678 55.1877 118.746 56.5298L117.747 56.5804C117.814 57.9057 117.868 59.2364 117.909 60.5726L118.908 60.5423Z" stroke="black" stroke-opacity="0.26" stroke-width="2" stroke-dasharray="4 4"/>
<g filter="url(#filter0_d_0_1)">
<rect x="-24" y="-18" width="308" height="192" rx="10" fill="white"/>
</g>
<rect width="52" height="48" rx="10" fill="#FFD4D4"/>
<g clip-path="url(#clip1_0_1)">
<path d="M31.4428 23.5486C30.6535 23.5486 29.9115 23.2414 29.3537 22.6833C28.7956 22.1252 28.488 21.3836 28.488 20.5943C28.488 19.8053 28.7952 19.0633 29.3537 18.5052C29.9115 17.9471 30.6535 17.6399 31.4428 17.6399C32.2317 17.6399 32.9737 17.9471 33.5318 18.5052C34.6835 19.6573 34.6835 21.5316 33.5318 22.6833C32.9741 23.2414 32.2317 23.5486 31.4428 23.5486ZM31.4428 18.4276C30.8638 18.4276 30.3199 18.6529 29.9107 19.0621C29.5014 19.4714 29.2758 20.0157 29.2758 20.5943C29.2758 21.1728 29.5011 21.7172 29.9107 22.1264C30.3199 22.5356 30.8638 22.7609 31.4428 22.7609C32.0214 22.7609 32.5657 22.5356 32.9749 22.1264C33.8197 21.2815 33.8197 19.907 32.9749 19.0621C32.5657 18.6529 32.0214 18.4276 31.4428 18.4276ZM29.6322 18.7837H29.6361H29.6322Z" fill="#331B3B"/>
<path d="M43.7215 10.6693C43.7219 10.4921 43.7207 10.314 43.7163 10.1348C43.7144 10.036 43.7104 9.93672 43.7069 9.83786C43.7026 9.71419 43.6986 9.5913 43.6923 9.46684C43.6801 9.22934 43.6647 8.99145 43.6447 8.75198C43.6289 8.56017 43.4769 8.40814 43.2851 8.39199C43.0444 8.3719 42.8053 8.35654 42.5667 8.34433C42.4489 8.33803 42.3319 8.33488 42.2145 8.33055C42.1086 8.32661 42.0022 8.32267 41.8967 8.32031C41.7246 8.31676 41.5536 8.31558 41.3831 8.31558C41.3532 8.31558 41.3236 8.31558 41.2937 8.31598C37.8068 8.33409 34.6083 9.20768 31.3715 11.0175C31.3676 11.0198 31.3656 11.0242 31.3617 11.0265C28.7507 12.4803 26.1422 14.5362 23.4391 17.2397C23.0905 17.5883 22.7479 17.9412 22.4119 18.2968C22.3989 18.2965 22.3871 18.2909 22.3737 18.2921L16.9593 18.7037C16.8837 18.7096 16.8108 18.7368 16.7505 18.7829L8.42902 25.1142C8.29944 25.2127 8.2439 25.3805 8.2888 25.5364C8.3337 25.6928 8.46998 25.8054 8.63186 25.82L16.5879 26.538L19.7856 29.7354C18.7431 29.7291 17.5706 30.2171 16.6332 31.1541C16.2086 31.5787 15.8679 32.0545 15.6198 32.5712C15.2724 33.3073 14.4996 35.2262 13.6812 37.2582L13.2873 38.2361C13.2282 38.3827 13.2625 38.5504 13.374 38.6619C13.4492 38.7371 13.55 38.7773 13.6524 38.7773C13.702 38.7773 13.7521 38.7682 13.7997 38.7489L14.8116 38.3413C16.8281 37.5291 18.7325 36.7623 19.4674 36.4157C19.981 36.1684 20.4572 35.8281 20.8818 35.4031C21.6246 34.6603 22.1157 33.7481 22.2646 32.8343C22.2969 32.6366 22.3083 32.4448 22.3075 32.2577L25.425 35.3739L26.1434 43.3307C26.1579 43.4926 26.2706 43.6289 26.427 43.6738C26.4628 43.684 26.4998 43.6892 26.5357 43.6892C26.6566 43.6892 26.7736 43.6332 26.8492 43.5336L33.1809 35.2125C33.2266 35.1522 33.2546 35.0797 33.2601 35.0041L33.6638 29.6956C34.0454 29.3368 34.4239 28.9713 34.7977 28.5975C37.5016 25.8937 39.5575 23.2851 41.0117 20.6738C41.0137 20.6703 41.0176 20.6687 41.0196 20.6651C42.8313 17.4252 43.7049 14.2243 43.7211 10.7315C43.7211 10.7111 43.7211 10.6902 43.7215 10.6693ZM42.3177 15.452C42.3055 15.4981 42.2925 15.5437 42.2799 15.5898C41.914 16.9081 41.3662 18.3142 40.571 19.8112L32.2258 11.4661C33.7205 10.6721 35.125 10.125 36.4413 9.75909C36.4909 9.7457 36.5406 9.73152 36.5902 9.71813C36.6875 9.69174 36.784 9.66771 36.8805 9.64369C38.808 9.1679 40.7848 9.00799 42.8853 9.15215C43.0294 11.2503 42.8699 13.2259 42.3949 15.1515C42.3697 15.2511 42.3449 15.3511 42.3177 15.452ZM17.135 19.4796L21.6407 19.1373C20.8286 20.0373 20.0621 20.9527 19.3457 21.8763C19.3445 21.8774 19.3429 21.8782 19.3418 21.8794C19.311 21.9188 19.2831 21.9582 19.2528 21.9976C19.0219 22.2969 18.7951 22.5966 18.5757 22.8972C18.5316 22.9578 18.4898 23.0181 18.4461 23.0783C18.2389 23.3651 18.0341 23.6518 17.838 23.9385C17.7561 24.0583 17.6801 24.1768 17.6001 24.2962C17.4477 24.5238 17.2937 24.7519 17.1487 24.9795C16.9825 25.2395 16.827 25.4974 16.6714 25.755L9.7138 25.1264L17.135 19.4796ZM17.9258 25.2284C18.0235 25.0776 18.1255 24.9256 18.2271 24.7739C18.3307 24.6183 18.4355 24.4624 18.5426 24.3068C18.6753 24.1142 18.8108 23.9208 18.9491 23.7274C19.0231 23.6234 19.0988 23.5199 19.174 23.4163C19.337 23.1922 19.5017 22.9681 19.6722 22.7436C19.6789 22.7349 19.686 22.7258 19.6927 22.7172L29.3199 32.3443C29.3088 32.3526 29.2978 32.3613 29.2868 32.3699C29.0666 32.5369 28.8468 32.698 28.6271 32.8583C28.5195 32.9367 28.412 33.0147 28.3045 33.0915C28.1139 33.2278 27.9236 33.3609 27.7342 33.4917C27.5735 33.6023 27.4128 33.7103 27.2521 33.817C27.1056 33.9151 26.9587 34.0139 26.8125 34.1085C26.4967 34.3125 26.1808 34.5118 25.8665 34.7012L17.3354 26.1709C17.5241 25.8574 17.7226 25.5431 17.9258 25.2284ZM21.4875 32.7079C21.365 33.4598 20.9523 34.2191 20.3252 34.8462C19.9633 35.2077 19.56 35.4972 19.1287 35.7044C18.4174 36.0403 16.4347 36.8383 14.5173 37.6107L14.3637 37.6725L14.413 37.55C15.1905 35.6193 15.9943 33.6228 16.3307 32.9103C16.539 32.4759 16.8285 32.073 17.1901 31.7114C17.9723 30.9292 18.9349 30.5086 19.7593 30.5086C20.263 30.5086 20.7152 30.6653 21.0429 30.9934C21.4446 31.3943 21.6025 32.0029 21.4875 32.7079ZM32.4834 34.8284L26.8366 42.2488L26.2186 35.4043C26.4971 35.2373 26.7763 35.0679 27.0575 34.8879C27.2793 34.7465 27.501 34.5964 27.7228 34.4484C27.8484 34.3645 27.9733 34.2845 28.0993 34.1979C28.3785 34.0068 28.6574 33.8075 28.9363 33.6063C29.0056 33.5563 29.0745 33.5086 29.1438 33.4582C29.4337 33.2467 29.7224 33.0277 30.0111 32.8056C30.0599 32.7681 30.1088 32.7331 30.1576 32.6953C30.1592 32.6941 30.16 32.6917 30.1616 32.6905C31.0552 31.9974 31.9422 31.2581 32.8142 30.4747L32.4834 34.8284ZM34.2408 28.0406C32.8568 29.4246 31.4121 30.7063 29.9489 31.8591L20.1775 22.0882C21.3304 20.625 22.612 19.1803 23.9964 17.7962C26.7149 15.0778 29.2147 13.179 31.5086 11.8631L40.1739 20.5285C38.858 22.8223 36.9592 25.3222 34.2408 28.0406Z" fill="#331B3B"/>
</g>
</g>
<defs>
<filter id="filter0_d_0_1" x="-35" y="-29" width="330" height="214" filterUnits="userSpaceOnUse" color-interpolation-filters="sRGB">
<feFlood flood-opacity="0" result="BackgroundImageFix"/>
<feColorMatrix in="SourceAlpha" type="matrix" values="0 0 0 0 0 0 0 0 0 0 0 0 0 0 0 0 0 0 127 0" result="hardAlpha"/>
<feMorphology radius="2" operator="dilate" in="SourceAlpha" result="effect1_dropShadow_0_1"/>
<feOffset/>
<feGaussianBlur stdDeviation="4.5"/>
<feComposite in2="hardAlpha" operator="out"/>
<feColorMatrix type="matrix" values="0 0 0 0 0 0 0 0 0 0 0 0 0 0 0 0 0 0 0.05 0"/>
<feBlend mode="normal" in2="BackgroundImageFix" result="effect1_dropShadow_0_1"/>
<feBlend mode="normal" in="SourceGraphic" in2="effect1_dropShadow_0_1" result="shape"/>
</filter>
<clipPath id="clip0_0_1">
<rect width="1400" height="4093" fill="white" transform="translate(-1335 -1155)"/>
</clipPath>
<clipPath id="clip1_0_1">
<rect width="36" height="36" fill="white" transform="translate(8 8)"/>
</clipPath>
</defs>
</svg>
